<svg xmlns="http://www.w3.org/2000/svg" viewBox="0 0 512 512">
  <defs>
    <linearGradient id="grad" x1="0%" y1="0%" x2="100%" y2="100%">
      <stop offset="0%" style="stop-color:#8b5cf6"/>
      <stop offset="100%" style="stop-color:#ec4899"/>
    </linearGradient>
  </defs>
  <rect width="512" height="512" rx="128" fill="url(#grad)"/>
  <path d="M256 120c-75 0-136 61-136 136s61 136 136 136 136-61 136-136-61-136-136-136zm0 220c-46 0-84-38-84-84s38-84 84-84 84 38 84 84-38 84-84 84z" fill="white"/>
  <circle cx="256" cy="256" r="40" fill="white"/>
  <path d="M256 180v-30M256 362v-30M180 256h-30M362 256h-30" stroke="white" stroke-width="20" stroke-linecap="round"/>
</svg>
